<?xml version="1.0" encoding="UTF-8"?>
<!-- Generator: Adobe Illustrator 16.0.0, SVG Export Plug-In . SVG Version: 6.00 Build 0) --> <svg
    xmlns="http://www.w3.org/2000/svg" xmlns:xlink="http://www.w3.org/1999/xlink" id="Layer_1" x="0px" y="0px"
    width="180px" height="60px" viewBox="0 0 180 60" xml:space="preserve">
    <g>
        <path fill="#FFFFFF"
            d="M21.959,19.915h-4.126c-0.155,0-0.28,0.127-0.28,0.283v8.589H9.715v-8.589c0-0.156-0.125-0.283-0.28-0.283 H5.285C5.125,19.915,5,20.042,5,20.198v20.63c0,0.156,0.125,0.281,0.285,0.281h4.151c0.155,0,0.28-0.125,0.28-0.281v-8.287h7.838 v8.287c0,0.156,0.125,0.281,0.28,0.281h4.126c0.155,0,0.28-0.125,0.28-0.281v-20.63C22.239,20.042,22.114,19.915,21.959,19.915z">
        </path>
        <path fill="#FFFFFF"
            d="M42.498,40.732l-6.925-20.625c-0.041-0.112-0.149-0.193-0.269-0.193h-4.236 c-0.124,0-0.228,0.081-0.27,0.193l-6.955,20.625c-0.031,0.092-0.016,0.184,0.041,0.262c0.051,0.068,0.136,0.115,0.228,0.115h4.321 c0.121,0,0.232-0.076,0.266-0.201l1.327-4.246H36.3l1.341,4.246c0.034,0.125,0.145,0.201,0.271,0.201h4.318 c0.09,0,0.175-0.047,0.231-0.115C42.513,40.916,42.528,40.824,42.498,40.732z M35.116,32.854h-3.89l1.954-6.182L35.116,32.854z">
        </path>
        <path fill="#FFFFFF"
            d="M60.875,19.915h-4.12c-0.161,0-0.285,0.127-0.285,0.283v8.589h-7.838v-8.589 c0-0.156-0.124-0.283-0.28-0.283h-4.151c-0.155,0-0.285,0.127-0.285,0.283v20.63c0,0.156,0.129,0.281,0.285,0.281h4.151 c0.156,0,0.28-0.125,0.28-0.281v-8.287h7.838v8.287c0,0.156,0.124,0.281,0.285,0.281h4.12c0.156,0,0.281-0.125,0.281-0.281v-20.63 C61.156,20.042,61.031,19.915,60.875,19.915z">
        </path>
        <path fill="#FFFFFF"
            d="M116.699,19.915h-13.443c-0.156,0-0.28,0.127-0.28,0.283v20.63c0,0.156,0.124,0.281,0.28,0.281h4.136 c0.155,0,0.29-0.125,0.29-0.281v-17.16h9.018c0.156,0,0.279-0.125,0.279-0.28v-3.19C116.979,20.042,116.855,19.915,116.699,19.915z ">
        </path>
        <path fill="#FFFFFF"
            d="M133.05,21.809c-1.418-1.255-3.364-1.894-5.79-1.894h-7.896c-0.156,0-0.28,0.127-0.28,0.283v20.63 c0,0.156,0.124,0.281,0.28,0.281h4.135c0.155,0,0.283-0.125,0.283-0.281v-7.201h3.478c2.427,0,4.372-0.627,5.788-1.871 c1.419-1.246,2.143-2.919,2.143-4.968C135.19,24.747,134.467,23.07,133.05,21.809z M123.782,23.668h3.478 c1.067,0,1.881,0.299,2.415,0.882c0.549,0.593,0.811,1.34,0.811,2.263c0,0.898-0.271,1.64-0.813,2.209 c-0.538,0.566-1.351,0.854-2.412,0.854h-3.478V23.668z">
        </path>
        <path fill="#FFFFFF"
            d="M152.9,40.732l-6.925-20.625c-0.041-0.112-0.146-0.193-0.274-0.193h-4.23c-0.119,0-0.233,0.081-0.264,0.193 l-6.962,20.625c-0.025,0.092-0.01,0.184,0.037,0.262c0.056,0.068,0.136,0.115,0.232,0.115h4.322c0.121,0,0.227-0.076,0.266-0.201 l1.326-4.246h6.27l1.341,4.246c0.04,0.125,0.151,0.201,0.276,0.201h4.321c0.087,0,0.177-0.047,0.223-0.115 C152.916,40.916,152.932,40.824,152.9,40.732z M145.523,32.854h-3.895l1.949-6.182L145.523,32.854z">
        </path>
        <path fill="#FFFFFF"
            d="M174.721,37.373h-1.844V20.198c0-0.156-0.124-0.283-0.286-0.283h-11.995c-0.142,0-0.27,0.107-0.288,0.248 l-1.026,8.446c-0.405,3.256-0.887,5.578-1.439,6.904c-0.52,1.246-1.358,1.859-2.589,1.859h-1.207c-0.156,0-0.28,0.125-0.28,0.281 v5.543c0,0.156,0.124,0.279,0.28,0.279h4.121c0.155,0,0.289-0.123,0.289-0.279v-2.088h11.839v2.088 c0,0.156,0.133,0.279,0.289,0.279h4.137c0.155,0,0.279-0.123,0.279-0.279v-5.543C175,37.498,174.876,37.373,174.721,37.373z M168.171,23.668v13.705h-6.567c0.526-0.932,0.976-2.053,1.347-3.352c0.423-1.498,0.771-3.297,1.021-5.345l0.614-5.009H168.171z">
        </path>
        <path fill="#FFFFFF"
            d="M82.416,18.614c6.281,0,11.387,5.11,11.387,11.386c0,6.275-5.105,11.381-11.387,11.381 c-6.275,0-11.384-5.105-11.384-11.381C71.032,23.724,76.141,18.614,82.416,18.614 M82.416,14.375 c-8.628,0-15.62,6.997-15.62,15.625c0,8.629,6.991,15.625,15.62,15.625c8.629,0,15.631-6.996,15.631-15.625 C98.047,21.372,91.045,14.375,82.416,14.375L82.416,14.375z">
        </path>
        <g>
            <path fill="#F9D918"
                d="M83.334,1.431c-0.31-0.473-0.53-0.644-0.918-0.674c-0.382,0.03-0.603,0.201-0.917,0.674 c-0.712,0.986-1.266,7.653-0.672,8.7c0.303,0.587,0.898,0.995,1.589,1.042c0.696-0.048,1.292-0.455,1.592-1.042 C84.604,9.084,84.05,2.417,83.334,1.431z">
            </path>
            <path fill="#F9D918"
                d="M81.499,58.568c0.314,0.475,0.535,0.645,0.918,0.674c0.387-0.029,0.607-0.199,0.917-0.674 c0.716-0.986,1.271-7.652,0.675-8.705c-0.301-0.582-0.896-0.994-1.592-1.033c-0.691,0.039-1.287,0.451-1.59,1.033 C80.234,50.916,80.788,57.582,81.499,58.568z">
            </path>
        </g>
        <g>
            <path fill="#F9D918"
                d="M64.836,11.52c-0.384-0.081-0.578-0.058-0.778,0.117c-0.174,0.204-0.202,0.394-0.122,0.783 c0.132,0.834,3.131,4.375,3.941,4.597c0.433,0.143,0.924,0.051,1.29-0.267c0.317-0.365,0.41-0.856,0.271-1.294 C69.213,14.651,65.671,11.652,64.836,11.52z">
            </path>
            <path fill="#F9D918"
                d="M100.002,48.484c0.379,0.076,0.573,0.049,0.777-0.127c0.175-0.193,0.202-0.389,0.117-0.777 c-0.133-0.834-3.131-4.381-3.937-4.598c-0.433-0.137-0.925-0.051-1.289,0.268c-0.316,0.365-0.415,0.855-0.274,1.289 C95.621,45.354,99.167,48.346,100.002,48.484z">
            </path>
        </g>
        <g>
            <path fill="#F9D918"
                d="M100.896,12.42c0.085-0.389,0.058-0.579-0.117-0.783c-0.204-0.175-0.398-0.198-0.777-0.117 c-0.835,0.132-4.381,3.131-4.605,3.936c-0.141,0.438-0.043,0.929,0.274,1.294c0.364,0.318,0.856,0.41,1.289,0.267 C97.766,16.795,100.764,13.254,100.896,12.42z">
            </path>
            <path fill="#F9D918"
                d="M63.937,47.58c-0.081,0.389-0.053,0.584,0.122,0.779c0.2,0.174,0.394,0.201,0.777,0.125 c0.835-0.139,4.377-3.131,4.603-3.945c0.138-0.434,0.046-0.924-0.272-1.289c-0.364-0.318-0.856-0.404-1.289-0.268 C67.067,43.199,64.069,46.746,63.937,47.58z">
            </path>
        </g>
        <g>
            <path fill="#F9D918"
                d="M72.53,4.172c-0.417-0.285-0.667-0.354-0.996-0.244c-0.308,0.155-0.433,0.377-0.528,0.879 c-0.254,1.067,1.583,6.807,2.436,7.471c0.457,0.387,1.09,0.52,1.684,0.32c0.562-0.278,0.917-0.821,0.97-1.414 C76.228,10.106,73.466,4.748,72.53,4.172z">
            </path>
            <path fill="#F9D918"
                d="M92.304,55.822c0.428,0.297,0.666,0.355,0.995,0.25c0.309-0.156,0.438-0.377,0.533-0.879 c0.25-1.064-1.587-6.809-2.436-7.477c-0.457-0.377-1.095-0.52-1.686-0.316c-0.564,0.281-0.916,0.822-0.968,1.42 C88.61,49.893,91.372,55.252,92.304,55.822z">
            </path>
        </g>
        <g>
            <path fill="#F9D918"
                d="M93.832,4.808c-0.096-0.502-0.225-0.724-0.533-0.879c-0.329-0.11-0.567-0.042-0.995,0.244 c-0.932,0.575-3.693,5.934-3.562,7.013c0.053,0.593,0.404,1.136,0.968,1.414c0.591,0.199,1.229,0.066,1.686-0.321 C92.245,11.614,94.082,5.875,93.832,4.808z">
            </path>
            <path fill="#F9D918"
                d="M71.006,55.191c0.096,0.504,0.22,0.725,0.528,0.881c0.329,0.105,0.579,0.047,0.995-0.25 c0.937-0.57,3.698-5.93,3.566-7.002c-0.052-0.598-0.408-1.139-0.97-1.42c-0.593-0.203-1.228-0.062-1.684,0.316 C72.588,48.385,70.751,54.129,71.006,55.191z">
            </path>
        </g>
        <path fill="#F9D918"
            d="M90.074,30c0,4.234-3.43,7.658-7.659,7.658S74.762,34.234,74.762,30c0-4.229,3.425-7.658,7.653-7.658 S90.074,25.771,90.074,30z">
        </path>
    </g>
</svg>