<svg width="60" height="60" xmlns="http://www.w3.org/2000/svg" xml:space="preserve">
    <rect width="100%" height="100%" fill="white" />
    <g>
        <path fill="#ffffff"
            d="m29.70767,18.614c6.281,0 11.387,5.11 11.387,11.386c0,6.275 -5.105,11.381 -11.387,11.381c-6.275,0 -11.384,-5.105 -11.384,-11.381c0,-6.276 5.109,-11.386 11.384,-11.386m0,-4.239c-8.628,0 -15.62,6.997 -15.62,15.625c0,8.629 6.991,15.625 15.62,15.625c8.629,0 15.631,-6.996 15.631,-15.625c0,-8.628 -7.002,-15.625 -15.631,-15.625l0,0z"
            id="svg_9" />
        <g id="svg_10">
            <path fill="#f9d918"
                d="m30.51456,1.31989c-0.31,-0.473 -0.53,-0.644 -0.918,-0.674c-0.382,0.03 -0.603,0.201 -0.917,0.674c-0.712,0.986 -1.266,7.653 -0.672,8.7c0.303,0.587 0.898,0.995 1.589,1.042c0.696,-0.048 1.292,-0.455 1.592,-1.042c0.596,-1.047 0.042,-7.714 -0.674,-8.7z"
                id="svg_11" />
            <path fill="#f9d918"
                d="m28.67956,58.45689c0.314,0.475 0.535,0.645 0.918,0.674c0.387,-0.029 0.607,-0.199 0.917,-0.674c0.716,-0.986 1.271,-7.652 0.675,-8.705c-0.301,-0.582 -0.896,-0.994 -1.592,-1.033c-0.691,0.039 -1.287,0.451 -1.59,1.033c-0.593,1.053 -0.039,7.719 0.672,8.705z"
                id="svg_12" />
        </g>
        <g id="svg_13">
            <path fill="#f9d918"
                d="m12.12767,11.52c-0.384,-0.081 -0.578,-0.058 -0.778,0.117c-0.174,0.204 -0.202,0.394 -0.122,0.783c0.132,0.834 3.131,4.375 3.941,4.597c0.433,0.143 0.924,0.051 1.29,-0.267c0.317,-0.365 0.41,-0.856 0.271,-1.294c-0.225,-0.805 -3.767,-3.804 -4.602,-3.936z"
                id="svg_14" />
            <path fill="#f9d918"
                d="m47.29367,48.484c0.379,0.076 0.573,0.049 0.777,-0.127c0.175,-0.193 0.202,-0.389 0.117,-0.777c-0.133,-0.834 -3.131,-4.381 -3.937,-4.598c-0.433,-0.137 -0.925,-0.051 -1.289,0.268c-0.316,0.365 -0.415,0.855 -0.274,1.289c0.225,0.815 3.771,3.807 4.606,3.945z"
                id="svg_15" />
        </g>
        <g id="svg_16">
            <path fill="#f9d918"
                d="m48.18767,12.42c0.085,-0.389 0.058,-0.579 -0.117,-0.783c-0.204,-0.175 -0.398,-0.198 -0.777,-0.117c-0.835,0.132 -4.381,3.131 -4.605,3.936c-0.141,0.438 -0.043,0.929 0.274,1.294c0.364,0.318 0.856,0.41 1.289,0.267c0.806,-0.222 3.804,-3.763 3.936,-4.597z"
                id="svg_17" />
            <path fill="#f9d918"
                d="m11.22867,47.58c-0.081,0.389 -0.053,0.584 0.122,0.779c0.2,0.174 0.394,0.201 0.777,0.125c0.835,-0.139 4.377,-3.131 4.603,-3.945c0.138,-0.434 0.046,-0.924 -0.272,-1.289c-0.364,-0.318 -0.856,-0.404 -1.289,-0.268c-0.811,0.217 -3.809,3.764 -3.941,4.598z"
                id="svg_18" />
        </g>
        <g id="svg_19">
            <path fill="#f9d918"
                d="m19.82167,4.172c-0.417,-0.285 -0.667,-0.354 -0.996,-0.244c-0.308,0.155 -0.433,0.377 -0.528,0.879c-0.254,1.067 1.583,6.807 2.436,7.471c0.457,0.387 1.09,0.52 1.684,0.32c0.562,-0.278 0.917,-0.821 0.97,-1.414c0.132,-1.078 -2.63,-6.436 -3.566,-7.012z"
                id="svg_20" />
            <path fill="#f9d918"
                d="m39.59567,55.822c0.428,0.297 0.666,0.355 0.995,0.25c0.309,-0.156 0.438,-0.377 0.533,-0.879c0.25,-1.064 -1.587,-6.809 -2.436,-7.477c-0.457,-0.377 -1.095,-0.52 -1.686,-0.316c-0.564,0.281 -0.916,0.822 -0.968,1.42c-0.132,1.073 2.63,6.432 3.562,7.002z"
                id="svg_21" />
        </g>
        <g id="svg_22" fill="#f9d918">
            <path fill="#f9d918"
                d="m41.12367,4.808c-0.096,-0.502 -0.225,-0.724 -0.533,-0.879c-0.329,-0.11 -0.567,-0.042 -0.995,0.244c-0.932,0.575 -3.693,5.934 -3.562,7.013c0.053,0.593 0.404,1.136 0.968,1.414c0.591,0.199 1.229,0.066 1.686,-0.321c0.849,-0.665 2.686,-6.404 2.436,-7.471z"
                id="svg_23" />
            <path fill="#f9d918"
                d="m18.29767,55.191c0.096,0.504 0.22,0.725 0.528,0.881c0.329,0.105 0.579,0.047 0.995,-0.25c0.937,-0.57 3.698,-5.93 3.566,-7.002c-0.052,-0.598 -0.408,-1.139 -0.97,-1.42c-0.593,-0.203 -1.228,-0.062 -1.684,0.316c-0.853,0.669 -2.69,6.413 -2.435,7.475z"
                id="svg_24" />
        </g>
        <path fill="#f9d918"
            d="m37.36567,30c0,4.234 -3.43,7.658 -7.659,7.658s-7.653,-3.424 -7.653,-7.658c0,-4.229 3.425,-7.658 7.653,-7.658s7.659,3.429 7.659,7.658z"
            id="svg_25" />
    </g>

</svg>